<svg xmlns="http://www.w3.org/2000/svg" xmlns:xlink="http://www.w3.org/1999/xlink" width="500" zoomAndPan="magnify" viewBox="0 0 375 374.999991" height="500" preserveAspectRatio="xMidYMid meet" version="1.0"><defs><clipPath id="c2d27a9b13"><path d="M 27.722656 27.722656 L 347.277344 27.722656 L 347.277344 347.277344 L 27.722656 347.277344 Z M 27.722656 27.722656 " clip-rule="nonzero"/></clipPath><clipPath id="bd73396a39"><path d="M 187.5 27.722656 C 99.257812 27.722656 27.722656 99.257812 27.722656 187.5 C 27.722656 275.742188 99.257812 347.277344 187.5 347.277344 C 275.742188 347.277344 347.277344 275.742188 347.277344 187.5 C 347.277344 99.257812 275.742188 27.722656 187.5 27.722656 Z M 187.5 27.722656 " clip-rule="nonzero"/></clipPath><clipPath id="8f75b87a5d"><path d="M 170 53.386719 L 284.820312 53.386719 L 284.820312 159 L 170 159 Z M 170 53.386719 " clip-rule="nonzero"/></clipPath><clipPath id="5648c74f34"><path d="M 89.820312 77 L 235 77 L 235 314 L 89.820312 314 Z M 89.820312 77 " clip-rule="nonzero"/></clipPath></defs><rect x="-37.5" width="450" fill="#ffffff" y="-37.499999" height="449.999989" fill-opacity="1"/><rect x="-37.5" width="450" fill="#ffffff" y="-37.499999" height="449.999989" fill-opacity="1"/><g clip-path="url(#c2d27a9b13)"><g clip-path="url(#bd73396a39)"><path fill="#ffffff" d="M 27.722656 27.722656 L 347.277344 27.722656 L 347.277344 347.277344 L 27.722656 347.277344 Z M 27.722656 27.722656 " fill-opacity="1" fill-rule="nonzero"/></g></g><path fill="#345b72" d="M 150.28125 87.480469 C 146.726562 89.996094 142.5625 95.460938 140.914062 97.800781 C 130.417969 112.808594 129.984375 121.308594 132.5 146.550781 C 133.105469 152.535156 128.941406 153.144531 124.257812 151.582031 C 125.992188 155.398438 128.769531 156.003906 133.28125 156.527344 C 131.71875 164.855469 126.167969 174.308594 121.042969 180.988281 C 118.09375 184.804688 116.011719 186.972656 121.738281 188.96875 C 123.644531 189.664062 125.554688 190.269531 127.460938 190.964844 C 131.625 192.351562 131.019531 196.34375 129.371094 199.988281 C 128.503906 201.722656 129.023438 202.328125 129.890625 203.109375 C 130.324219 203.457031 131.539062 203.800781 132.148438 203.890625 C 131.453125 206.230469 131.714844 208.054688 133.449219 208.488281 C 137.179688 209.355469 137.957031 218.636719 138.566406 222.105469 C 141.777344 236.765625 164.332031 224.707031 176.90625 228.785156 C 212.472656 240.324219 189.144531 306.164062 121.824219 282.65625 C 185.320312 321.605469 237.628906 256.542969 196.164062 201.027344 C 185.753906 187.148438 171.617188 173.875 158.691406 154.964844 C 145.070312 134.925781 141.949219 115.410156 150.277344 87.476562 Z M 150.28125 87.480469 " fill-opacity="1" fill-rule="evenodd"/><path fill="#100d29" d="M 170.667969 78.285156 C 147.417969 130.851562 218.117188 157.222656 237.203125 209.875 C 250.039062 245.261719 243.96875 284.390625 211.871094 310.066406 C 247.265625 293.585938 258.460938 257.152344 252.640625 222.28125 C 246.050781 183.332031 220.375 162.078125 193.308594 136.578125 C 179.949219 123.910156 168.324219 105.523438 170.667969 78.285156 Z M 170.667969 78.285156 " fill-opacity="1" fill-rule="evenodd"/><g clip-path="url(#8f75b87a5d)"><path fill="#085f57" d="M 205.800781 131.457031 C 173.53125 109.421875 185.160156 77.671875 170.148438 65.09375 C 202.417969 70.644531 218.8125 94.15625 208.664062 126.597656 C 206.40625 107.773438 202.675781 91.03125 187.0625 76.027344 C 198.945312 96.414062 202.070312 108.90625 205.800781 131.464844 Z M 210.136719 133.363281 C 246.484375 118.964844 266.347656 146.375 285.171875 140.910156 C 262.53125 164.59375 233.820312 165.027344 212.652344 138.480469 C 229.480469 147.070312 245.441406 153.402344 266.613281 148.890625 C 243.105469 147.242188 230.960938 142.90625 210.148438 133.363281 Z M 215.6875 125.816406 C 213.347656 73.515625 254.722656 74.988281 257.847656 53.386719 C 271.378906 87.21875 261.40625 122.09375 222.019531 125.648438 C 238.414062 112.632812 252.207031 99.363281 257.40625 75.769531 C 244.914062 98.929688 234.9375 109.164062 215.679688 125.820312 Z M 215.6875 125.816406 " fill-opacity="1" fill-rule="evenodd"/></g><path fill="#100d29" d="M 215.601562 94.851562 C 212.304688 83.488281 206.40625 81.230469 211.4375 68.222656 C 212.652344 65.097656 213.519531 62.324219 213.519531 57.550781 C 225.578125 73.078125 223.238281 78.457031 215.601562 94.851562 Z M 215.601562 94.851562 " fill-opacity="1" fill-rule="evenodd"/><path fill="#100d29" d="M 243.792969 125.214844 C 254.984375 121.398438 256.980469 115.324219 270.164062 119.835938 C 273.289062 120.875 276.152344 121.65625 280.929688 121.398438 C 265.921875 134.148438 260.457031 132.066406 243.800781 125.214844 Z M 243.792969 125.214844 " fill-opacity="1" fill-rule="evenodd"/><g clip-path="url(#5648c74f34)"><path fill="#100d29" d="M 158.351562 77.417969 C 140.480469 139.78125 165.378906 151.496094 200.507812 192.699219 C 232.34375 230.175781 222.625 292.113281 172.921875 299.398438 C 141 304.082031 103.355469 282.136719 89.820312 265.132812 C 108.644531 293.414062 142.390625 317.09375 174.3125 313.191406 C 233.210938 305.992188 254.03125 231.910156 211.960938 185.589844 C 180.382812 150.800781 152.625 132.152344 158.351562 77.417969 Z M 158.351562 77.417969 " fill-opacity="1" fill-rule="evenodd"/></g></svg>